<?xml version="1.0" standalone="no"?>
<!DOCTYPE svg PUBLIC "-//W3C//DTD SVG 20010904//EN"
 "http://www.w3.org/TR/2001/REC-SVG-20010904/DTD/svg10.dtd">
<svg version="1.0" xmlns="http://www.w3.org/2000/svg"
 width="512.000000pt" height="512.000000pt" viewBox="0 0 512.000000 512.000000"
 preserveAspectRatio="xMidYMid meet">
<metadata>
Created by potrace 1.11, written by Peter Selinger 2001-2013
</metadata>
<g transform="translate(0.000000,512.000000) scale(0.100000,-0.100000)"
fill="#000000" stroke="none">
<path d="M2496 4816 c-90 -33 -135 -110 -136 -228 l0 -78 200 0 200 0 0 75 c0
84 -16 134 -58 178 -54 57 -137 78 -206 53z"/>
<path d="M279 4390 c-26 -4 -57 -13 -69 -20 -41 -22 -101 -83 -122 -124 -26
-49 -35 -172 -19 -233 18 -67 70 -133 131 -167 l55 -31 2305 0 2305 0 55 31
c61 34 113 100 131 167 16 61 7 184 -19 233 -24 48 -90 109 -141 132 -33 16
-218 17 -2301 18 -1246 1 -2286 -2 -2311 -6z"/>
<path d="M432 2572 l3 -1127 33 -67 c40 -82 119 -157 200 -190 l57 -23 785 -3
784 -3 -352 -352 c-349 -350 -352 -353 -352 -394 0 -76 80 -137 146 -113 16 6
181 163 372 353 l342 342 0 -313 c0 -196 4 -321 10 -333 14 -25 62 -49 100
-49 38 0 86 24 100 49 6 12 10 137 10 333 l0 313 343 -342 c190 -190 355 -347
371 -353 66 -24 146 37 146 113 0 41 -3 44 -352 394 l-352 352 784 3 785 3 57
23 c81 33 160 108 200 190 l33 67 3 1127 2 1128 -110 0 -110 0 -2 -1102 -3
-1103 -23 -36 c-46 -75 114 -69 -1887 -69 -1693 0 -1799 1 -1827 18 -16 9 -39
33 -51 52 l-22 35 -3 1103 -2 1102 -110 0 -110 0 2 -1128z"/>
</g>
</svg>
